# This file uses centimeters as units for non-parametric coordinates.

mtllib chair.mtl
g default
v -5.406482 20.620793 4.559854
v 2.393465 20.620793 4.559854
v -5.406482 21.765615 4.559854
v 2.393465 21.765615 4.559854
v -5.406482 21.765615 -3.240092
v 2.393465 21.765615 -3.240092
v -5.406482 20.620793 -3.240092
v 2.393465 20.620793 -3.240092
v 2.393465 20.620793 3.796668
v -5.406482 20.620793 3.796668
v -5.406482 21.765615 3.796668
v 2.393465 21.765615 3.796668
v 2.393464 20.620793 -2.497251
v -5.406482 20.620793 -2.497251
v -5.406482 21.765615 -2.497251
v 2.393464 21.765615 -2.497251
v 1.696584 20.620793 -3.240092
v 1.696583 20.620793 -2.497251
v 1.696584 20.620793 3.796668
v 1.696584 20.620793 4.559854
v 1.696584 21.765615 4.559854
v 1.696584 21.765615 3.796668
v 1.696583 21.765615 -2.497251
v 1.696584 21.765615 -3.240092
v -4.635044 20.620793 -3.240092
v -4.635044 20.620793 -2.497251
v -4.635044 20.620793 3.796668
v -4.635044 20.620793 4.559854
v -4.635044 21.765615 4.559854
v -4.635044 21.765615 3.796668
v -4.635044 21.765615 -2.497251
v -4.635044 21.765615 -3.240092
v -5.406482 14.171930 -3.240092
v -4.635044 14.171930 -3.240092
v -4.635044 14.171930 -2.497251
v -5.406482 14.171930 -2.497251
v -4.635044 14.171930 3.796668
v -5.406482 14.171930 3.796668
v -4.635044 14.171930 4.559854
v -5.406482 14.171930 4.559854
v 1.696584 14.171930 -3.240094
v 2.393465 14.171930 -3.240094
v 2.393464 14.171930 -2.497253
v 1.696583 14.171930 -2.497253
v 1.696584 14.171930 3.796668
v 1.696584 14.171930 4.559854
v 2.393465 14.171930 3.796668
v 2.393465 14.171930 4.559854
v -5.406482 25.776495 -2.497251
v -4.635044 25.776495 -2.497251
v -4.635044 25.776495 -3.240092
v -5.406482 25.776495 -3.240092
v -5.406482 25.776495 4.559854
v -4.635044 25.776495 4.559854
v -4.635044 25.776495 3.796668
v -5.406482 25.776495 3.796668
v -4.635044 24.562315 3.796668
v -4.635044 24.562315 4.559854
v -5.406482 24.562315 4.559854
v -5.406482 24.562315 3.796668
v -4.635044 24.562315 -3.240092
v -4.635044 24.562315 -2.497251
v -5.406482 24.562315 -2.497251
v -5.406482 24.562315 -3.240092
v -5.406482 31.170279 -2.497251
v -4.635044 31.170279 -2.497251
v -4.635044 31.170279 -3.240092
v -5.406482 31.170279 -3.240092
v -5.406482 31.170279 4.559854
v -4.635044 31.170279 4.559854
v -4.635044 31.170279 3.796668
v -5.406482 31.170279 3.796668
v -4.635044 27.811835 3.796668
v -4.635044 27.811835 4.559854
v -5.406482 27.811835 4.559854
v -5.406482 27.811835 3.796668
v -4.635044 27.811835 -2.497251
v -5.406482 27.811835 -2.497251
v -5.406482 27.811835 -3.240092
v -4.635044 27.811835 -3.240092
vt 0.375000 0.000000
vt 0.625000 0.000000
vt 0.375000 0.250000
vt 0.625000 0.250000
vt 0.375000 0.500000
vt 0.625000 0.500000
vt 0.375000 0.750000
vt 0.625000 0.750000
vt 0.375000 1.000000
vt 0.625000 1.000000
vt 0.875000 0.000000
vt 0.875000 0.250000
vt 0.125000 0.000000
vt 0.125000 0.250000
vt 0.625000 0.968431
vt 0.656569 0.000000
vt 0.343431 0.000000
vt 0.375000 0.968431
vt 0.343431 0.250000
vt 0.375000 0.281569
vt 0.625000 0.281569
vt 0.656569 0.250000
vt 0.625000 0.783344
vt 0.841656 0.000000
vt 0.158344 0.000000
vt 0.375000 0.783344
vt 0.158344 0.250000
vt 0.375000 0.466656
vt 0.625000 0.466656
vt 0.841656 0.250000
vt 0.602664 0.750000
vt 0.602664 0.783344
vt 0.602664 0.968431
vt 0.602664 0.000000
vt 0.602664 1.000000
vt 0.602664 0.250000
vt 0.602664 0.281569
vt 0.602664 0.466656
vt 0.602664 0.500000
vt 0.399726 0.750000
vt 0.399726 0.783344
vt 0.399726 0.968431
vt 0.399726 0.000000
vt 0.399726 1.000000
vt 0.399726 0.250000
vt 0.399726 0.281569
vt 0.399726 0.466656
vt 0.399726 0.500000
vt 0.375000 0.750000
vt 0.399726 0.750000
vt 0.399726 0.783344
vt 0.375000 0.783344
vt 0.375000 0.968431
vt 0.399726 0.968431
vt 0.399726 1.000000
vt 0.375000 1.000000
vt 0.602664 0.750000
vt 0.625000 0.750000
vt 0.625000 0.783344
vt 0.602664 0.783344
vt 0.602664 1.000000
vt 0.602664 0.968431
vt 0.625000 0.968431
vt 0.625000 1.000000
vt 0.375000 0.466656
vt 0.399726 0.466656
vt 0.399726 0.500000
vt 0.375000 0.500000
vt 0.375000 0.250000
vt 0.399726 0.250000
vt 0.399726 0.281569
vt 0.375000 0.281569
vt 0.399726 0.281569
vt 0.399726 0.250000
vt 0.375000 0.250000
vt 0.375000 0.281569
vt 0.399726 0.500000
vt 0.399726 0.466656
vt 0.375000 0.466656
vt 0.375000 0.500000
vt 0.375000 0.466656
vt 0.399726 0.466656
vt 0.399726 0.500000
vt 0.375000 0.500000
vt 0.375000 0.250000
vt 0.399726 0.250000
vt 0.399726 0.281569
vt 0.375000 0.281569
vt 0.399726 0.281569
vt 0.399726 0.250000
vt 0.375000 0.250000
vt 0.375000 0.281569
vt 0.399726 0.466656
vt 0.375000 0.466656
vt 0.375000 0.500000
vt 0.399726 0.500000
vn 0.000000 0.000000 1.000000
vn 0.000000 0.000000 1.000000
vn 0.000000 0.000000 1.000000
vn 0.000000 0.000000 1.000000
vn 0.000000 1.000000 0.000000
vn 0.000000 1.000000 0.000000
vn 0.000000 1.000000 0.000000
vn 0.000000 1.000000 0.000000
vn 0.000000 0.000000 -1.000000
vn 0.000000 0.000000 -1.000000
vn 0.000000 0.000000 -1.000000
vn 0.000000 0.000000 -1.000000
vn 0.000000 -1.000000 0.000000
vn 0.000000 -1.000000 0.000000
vn 0.000000 -1.000000 0.000000
vn 0.000000 -1.000000 0.000000
vn 1.000000 0.000000 0.000000
vn 1.000000 -0.000000 0.000000
vn 1.000000 -0.000000 0.000000
vn 1.000000 0.000000 0.000000
vn -1.000000 0.000000 0.000000
vn -1.000000 0.000000 0.000000
vn -1.000000 0.000000 0.000000
vn -1.000000 0.000000 0.000000
vn 0.000000 -1.000000 0.000000
vn 0.000000 -1.000000 0.000000
vn 0.000000 -1.000000 0.000000
vn 0.000000 -1.000000 0.000000
vn -1.000000 0.000000 0.000000
vn -1.000000 0.000000 0.000000
vn -1.000000 0.000000 0.000000
vn -1.000000 0.000000 0.000000
vn 0.000000 1.000000 0.000000
vn 0.000000 1.000000 0.000000
vn 0.000000 1.000000 0.000000
vn 0.000000 1.000000 0.000000
vn 1.000000 0.000000 0.000000
vn 1.000000 0.000000 -0.000000
vn 1.000000 0.000000 -0.000000
vn 1.000000 0.000000 0.000000
vn 0.000000 -1.000000 0.000000
vn 0.000000 -1.000000 0.000000
vn 0.000000 -1.000000 0.000000
vn 0.000000 -1.000000 0.000000
vn 0.000000 1.000000 0.000000
vn 0.000000 1.000000 0.000000
vn 0.000000 1.000000 0.000000
vn 0.000000 1.000000 0.000000
vn 0.000000 -1.000000 -0.000000
vn 0.000000 -1.000000 -0.000000
vn 0.000000 -1.000000 -0.000000
vn 0.000000 -1.000000 -0.000000
vn 0.000000 -1.000000 0.000000
vn 0.000000 -1.000000 0.000000
vn 0.000000 -1.000000 0.000000
vn 0.000000 -1.000000 0.000000
vn 0.000000 -1.000000 0.000000
vn 0.000000 -1.000000 0.000000
vn 0.000000 -1.000000 0.000000
vn 0.000000 -1.000000 0.000000
vn 0.000000 0.000000 1.000000
vn 0.000000 0.000000 1.000000
vn 0.000000 0.000000 1.000000
vn 0.000000 0.000000 1.000000
vn 0.000000 1.000000 0.000000
vn 0.000000 1.000000 0.000000
vn 0.000000 1.000000 0.000000
vn 0.000000 1.000000 0.000000
vn 0.000000 1.000000 0.000000
vn 0.000000 1.000000 0.000000
vn 0.000000 1.000000 0.000000
vn 0.000000 1.000000 0.000000
vn 0.000000 0.000000 -1.000000
vn 0.000000 0.000000 -1.000000
vn 0.000000 0.000000 -1.000000
vn 0.000000 0.000000 -1.000000
vn 0.000000 -1.000000 0.000000
vn 0.000000 -1.000000 0.000000
vn 0.000000 -1.000000 0.000000
vn 0.000000 -1.000000 0.000000
vn 0.000000 1.000000 0.000000
vn 0.000000 1.000000 0.000000
vn 0.000000 0.000000 -1.000000
vn 0.000000 0.000000 -1.000000
vn 1.000000 0.000000 0.000000
vn 1.000000 0.000000 0.000000
vn 1.000000 0.000000 0.000000
vn 1.000000 0.000000 0.000000
vn 0.000000 0.000000 1.000000
vn 0.000000 0.000000 1.000000
vn 0.000000 0.000000 1.000000
vn 0.000000 0.000000 1.000000
vn -1.000000 0.000000 0.000000
vn -1.000000 0.000000 0.000000
vn 0.000000 0.000000 -1.000000
vn 0.000000 0.000000 -1.000000
vn 0.000000 0.000000 -1.000000
vn 0.000000 0.000000 -1.000000
vn 1.000000 0.000000 0.000000
vn 1.000000 0.000000 0.000000
vn 1.000000 0.000000 0.000000
vn 1.000000 0.000000 0.000000
vn 0.000000 0.000000 1.000000
vn 0.000000 0.000000 1.000000
vn -1.000000 0.000000 0.000000
vn -1.000000 0.000000 0.000000
vn 0.000000 0.000000 -1.000000
vn 0.000000 0.000000 -1.000000
vn 1.000000 -0.000000 0.000000
vn 1.000000 -0.000000 0.000000
vn 0.000000 -0.000000 1.000000
vn 0.000000 -0.000000 1.000000
vn 0.000000 -0.000000 1.000000
vn 0.000000 -0.000000 1.000000
vn -1.000000 0.000000 -0.000000
vn -1.000000 0.000000 -0.000000
vn -1.000000 0.000000 -0.000000
vn -1.000000 0.000000 -0.000000
vn -1.000000 0.000000 0.000000
vn -1.000000 0.000000 0.000000
vn -1.000000 0.000000 0.000000
vn -1.000000 0.000000 0.000000
vn 0.000000 0.000000 -1.000000
vn 0.000000 0.000000 -1.000000
vn 0.000000 0.000000 -1.000000
vn 0.000000 0.000000 -1.000000
vn 1.000000 0.000000 0.000000
vn 1.000000 0.000000 0.000000
vn 0.000000 0.000000 1.000000
vn 0.000000 0.000000 1.000000
vn 0.000000 0.000000 1.000000
vn 0.000000 0.000000 1.000000
vn 0.000000 0.000000 1.000000
vn 0.000000 0.000000 1.000000
vn 1.000000 0.000000 0.000000
vn 1.000000 0.000000 0.000000
vn 1.000000 0.000000 0.000000
vn 1.000000 -0.000000 0.000000
vn 0.000000 0.000000 -1.000000
vn 0.000000 0.000000 -1.000000
vn -1.000000 -0.000000 0.000000
vn -1.000000 -0.000000 0.000000
vn 0.000000 0.000000 1.000000
vn 0.000000 0.000000 1.000000
vn 1.000000 0.000000 0.000000
vn 1.000000 0.000000 0.000000
vn 1.000000 -0.000000 0.000000
vn 1.000000 0.000000 0.000000
vn 0.000000 0.000000 -1.000000
vn 0.000000 0.000000 -1.000000
vn 0.000000 0.000000 -1.000000
vn 0.000000 0.000000 -1.000000
vn -1.000000 0.000000 0.000000
vn -1.000000 0.000000 0.000000
vn 1.000000 -0.000000 0.000000
vn 1.000000 0.000000 0.000000
vn 0.000000 0.000000 1.000000
vn 0.000000 0.000000 1.000000
vn -1.000000 0.000000 0.000000
vn -1.000000 0.000000 0.000000
vn 1.000000 0.000000 0.000000
vn 1.000000 -0.000000 0.000000
vn -1.000000 -0.000000 0.000000
vn -1.000000 -0.000000 0.000000
vn 0.000000 -0.000000 -1.000000
vn 0.000000 -0.000000 -1.000000
vn 0.000000 1.000000 0.000000
vn 0.000000 1.000000 0.000000
vn 0.000000 1.000000 0.000000
vn 0.000000 1.000000 0.000000
vn 0.000000 -1.000000 0.000000
vn 0.000000 -1.000000 0.000000
vn 0.000000 -1.000000 0.000000
vn 0.000000 -1.000000 0.000000
vn 0.000000 0.000000 1.000000
vn 0.000000 0.000000 1.000000
vn 0.000000 0.000000 1.000000
vn 0.000000 0.000000 1.000000
vn 1.000000 0.000000 0.000000
vn 1.000000 0.000000 0.000000
vn 0.000000 -0.000000 -1.000000
vn 0.000000 -0.000000 -1.000000
vn -1.000000 0.000000 0.000000
vn -1.000000 0.000000 0.000000
vn 0.000000 0.000000 1.000000
vn 0.000000 0.000000 1.000000
vn 1.000000 0.000000 0.000000
vn 1.000000 0.000000 0.000000
vn -0.000000 0.000000 -1.000000
vn -0.000000 0.000000 -1.000000
vn -0.000000 0.000000 -1.000000
vn -0.000000 0.000000 -1.000000
vn -1.000000 0.000000 0.000000
vn -1.000000 0.000000 0.000000
vn 1.000000 0.000000 0.000000
vn 1.000000 0.000000 0.000000
vn 0.000000 0.000000 1.000000
vn 0.000000 0.000000 1.000000
vn -1.000000 0.000000 0.000000
vn -1.000000 0.000000 0.000000
vn -1.000000 -0.000000 0.000000
vn -1.000000 -0.000000 0.000000
vn 0.000000 -0.000000 -1.000000
vn 0.000000 -0.000000 -1.000000
vn 1.000000 0.000000 0.000000
vn 1.000000 0.000000 0.000000
vn 0.000000 -1.000000 0.000000
vn 0.000000 -1.000000 0.000000
vn 0.000000 -1.000000 0.000000
vn 0.000000 -1.000000 0.000000
s 1
g pCube1
usemtl initialShadingGroup
f 1/1/1 28/43/2 29/45/3 3/3/4
s 2
f 65/81/5 66/82/6 67/83/7 68/84/8
s 3
f 5/5/9 32/48/10 25/40/11 7/7/12
s off
f 33/49/13 34/50/14 35/51/15 36/52/16
s 4
f 16/30/17 13/24/18 8/11/19 6/12/20
s 5
f 7/13/21 14/25/22 15/27/23 5/14/24
s off
f 38/53/25 37/54/26 39/55/27 40/56/28
s 5
f 11/19/29 10/17/30 1/1/31 3/3/32
s 2
f 69/85/33 70/86/34 71/87/35 72/88/36
s 4
f 2/2/37 9/16/38 12/22/39 4/4/40
s 7
f 14/26/41 26/41/42 27/42/43 10/18/44
s 5
f 15/27/23 14/25/22 10/17/30 11/19/29
s 8
f 11/20/45 30/46/46 31/47/47 15/28/48
s 4
f 12/22/39 9/16/38 13/24/18 16/30/17
s off
f 41/57/49 42/58/50 43/59/51 44/60/52
s 7
f 19/33/53 18/32/54 13/23/55 9/15/56
s off
f 46/61/57 45/62/58 47/63/59 48/64/60
s 1
f 21/36/61 20/34/62 2/2/63 4/4/64
s 8
f 22/37/65 21/36/66 4/4/67 12/21/68
f 23/38/69 22/37/65 12/21/68 16/29/70
f 24/39/71 23/38/69 16/29/70 6/6/72
s 3
f 17/31/73 24/39/74 6/6/75 8/8/76
s 7
f 25/40/77 17/31/78 18/32/54 26/41/42
f 27/42/43 26/41/42 18/32/54 19/33/53
f 28/44/79 27/42/43 19/33/53 20/35/80
s 1
f 29/45/3 28/43/2 20/34/62 21/36/61
s 8
f 30/46/46 29/45/81 21/36/66 22/37/65
f 31/47/47 30/46/46 22/37/65 23/38/69
f 32/48/82 31/47/47 23/38/69 24/39/71
s 3
f 25/40/11 32/48/10 24/39/74 17/31/73
f 7/7/12 25/40/11 34/50/83 33/49/84
s off
f 25/40/85 26/41/86 35/51/87 34/50/88
f 26/41/89 14/26/90 36/52/91 35/51/92
s 5
f 14/26/22 7/7/21 33/49/93 36/52/94
s off
f 10/18/95 27/42/96 37/54/97 38/53/98
f 27/42/99 28/44/100 39/55/101 37/54/102
s 1
f 28/44/2 1/9/1 40/56/103 39/55/104
s 5
f 1/9/31 10/18/30 38/53/105 40/56/106
s 3
f 17/31/73 8/8/76 42/58/107 41/57/108
s 4
f 8/8/19 13/23/18 43/59/109 42/58/110
s off
f 13/23/111 18/32/112 44/60/113 43/59/114
f 18/32/115 17/31/116 41/57/117 44/60/118
f 20/35/119 19/33/120 45/62/121 46/61/122
f 19/33/123 9/15/124 47/63/125 45/62/126
s 4
f 9/15/38 2/10/37 48/64/127 47/63/128
s 1
f 2/10/63 20/35/62 46/61/129 48/64/130
s off
f 15/28/131 31/47/132 62/78/133 63/79/134
s 10
f 31/47/135 32/48/136 61/77/137 62/78/138
s 3
f 32/48/10 5/5/9 64/80/139 61/77/140
s 5
f 5/5/24 15/28/23 63/79/141 64/80/142
s 1
f 3/3/4 29/45/3 58/74/143 59/75/144
s 10
f 29/45/145 30/46/146 57/73/147 58/74/148
s off
f 30/46/149 11/20/150 60/76/151 57/73/152
s 5
f 11/20/29 3/3/32 59/75/153 60/76/154
s 10
f 58/74/148 57/73/147 55/71/155 54/70/156
s 1
f 59/75/144 58/74/143 54/70/157 53/69/158
s 5
f 60/76/154 59/75/153 53/69/159 56/72/160
s 10
f 62/78/138 61/77/137 51/67/161 50/66/162
s 5
f 64/80/142 63/79/141 49/65/163 52/68/164
s 3
f 61/77/140 64/80/139 52/68/165 51/67/166
s off
f 50/66/167 49/65/168 56/72/169 55/71/170
s 5
f 49/65/163 63/79/141 60/76/154 56/72/160
s off
f 63/79/171 62/78/172 57/73/173 60/76/174
s 10
f 62/78/138 50/66/162 55/71/155 57/73/147
s off
f 49/65/175 50/66/176 77/93/177 78/94/178
s 10
f 50/66/162 51/67/161 80/96/179 77/93/180
s 3
f 51/67/166 52/68/165 79/95/181 80/96/182
s 5
f 52/68/164 49/65/163 78/94/183 79/95/184
s 1
f 53/69/158 54/70/157 74/90/185 75/91/186
s 10
f 54/70/156 55/71/155 73/89/187 74/90/188
s off
f 55/71/189 56/72/190 76/92/191 73/89/192
s 5
f 56/72/160 53/69/159 75/91/193 76/92/194
s 10
f 74/90/188 73/89/187 71/87/195 70/86/196
s 1
f 75/91/186 74/90/185 70/86/197 69/85/198
s 5
f 76/92/194 75/91/193 69/85/199 72/88/200
f 79/95/184 78/94/183 65/81/201 68/84/202
s 3
f 80/96/182 79/95/181 68/84/203 67/83/204
s 10
f 77/93/180 80/96/179 67/83/205 66/82/206
s 2
f 66/82/6 65/81/5 72/88/36 71/87/35
s 5
f 65/81/201 78/94/183 76/92/194 72/88/200
s off
f 78/94/207 77/93/208 73/89/209 76/92/210
s 10
f 77/93/180 66/82/206 71/87/195 73/89/187
