# This file uses centimeters as units for non-parametric coordinates.

mtllib map.mtl
g default
v 3.775695 1.442402 4.578328
v 3.775695 0.098701 4.578328
v 3.775695 1.442402 5.267970
v 3.775695 0.098701 5.267970
v -3.399949 1.442402 5.267970
v -3.399949 0.098701 5.267970
v -3.399949 0.098701 4.578328
v -3.399949 1.442402 4.578328
v 3.775695 1.442402 -4.682409
v 3.775695 0.098701 -4.682409
v 3.775695 1.442402 -3.992767
v 3.775695 0.098701 -3.992767
v -3.399949 1.442402 -3.992767
v -3.399949 0.098701 -3.992767
v -3.399949 0.098701 -4.682409
v -3.399949 1.442402 -4.682409
v -11.489464 0.098701 -3.226316
v -10.789286 0.098701 -3.226316
v -11.489464 1.442402 -3.226316
v -10.789286 1.442402 -3.226316
v -11.489464 1.442402 -7.694588
v -10.789286 1.442402 -7.694588
v -11.489464 0.098701 -7.694588
v -10.789286 0.098701 -7.694588
v -11.489464 1.442402 -7.004946
v -10.789286 1.442402 -7.004946
v -10.789286 0.098701 -7.004946
v -11.489464 0.098701 -7.004946
v -4.313820 1.442402 -7.004946
v -4.313820 0.098701 -7.004946
v -4.313820 0.098701 -7.694588
v -4.313820 1.442402 -7.694588
v 12.103485 0.098701 -3.226316
v 11.403307 0.098701 -3.226316
v 12.103485 1.442402 -3.226316
v 11.403307 1.442402 -3.226316
v 12.103485 1.442402 -7.694588
v 11.403307 1.442402 -7.694588
v 12.103485 0.098701 -7.694588
v 11.403307 0.098701 -7.694588
v 12.103485 1.442402 -7.004946
v 11.403307 1.442402 -7.004946
v 11.403307 0.098701 -7.004946
v 12.103485 0.098701 -7.004946
v 4.927841 1.442402 -7.004946
v 4.927841 0.098701 -7.004946
v 4.927841 0.098701 -7.694588
v 4.927841 1.442402 -7.694588
v 12.103485 0.098701 4.064027
v 11.403308 0.098701 4.064027
v 12.103485 1.442402 4.064027
v 11.403308 1.442402 4.064027
v 12.103485 1.442402 8.532299
v 11.403308 1.442402 8.532299
v 12.103485 0.098701 8.532299
v 11.403308 0.098701 8.532299
v 12.103485 1.442402 7.842657
v 11.403308 1.442402 7.842657
v 11.403308 0.098701 7.842657
v 12.103485 0.098701 7.842657
v 4.927841 1.442402 7.842657
v 4.927841 0.098701 7.842657
v 4.927841 0.098701 8.532299
v 4.927841 1.442402 8.532299
v -11.489464 0.098701 4.064027
v -10.789287 0.098701 4.064027
v -11.489464 1.442402 4.064027
v -10.789287 1.442402 4.064027
v -11.489464 1.442402 8.532299
v -10.789287 1.442402 8.532299
v -11.489464 0.098701 8.532299
v -10.789287 0.098701 8.532299
v -11.489464 1.442402 7.842657
v -10.789287 1.442402 7.842657
v -10.789287 0.098701 7.842657
v -11.489464 0.098701 7.842657
v -4.313820 1.442402 7.842657
v -4.313820 0.098701 7.842657
v -4.313820 0.098701 8.532299
v -4.313820 1.442402 8.532299
vt 0.101590 0.851347
vt 0.101804 0.821739
vt 0.159494 0.822155
vt 0.159280 0.851763
vt 0.159538 0.816020
vt 0.101848 0.815604
vt 0.102061 0.785995
vt 0.159751 0.786411
vt 0.667685 0.785102
vt 0.359609 0.782880
vt 0.359822 0.753272
vt 0.667898 0.755493
vt 0.672951 0.054703
vt 0.364875 0.052481
vt 0.365291 -0.005208
vt 0.673367 -0.002987
vt 0.667943 0.749358
vt 0.359867 0.747136
vt 0.360080 0.717528
vt 0.668156 0.719749
vt 0.668616 0.655924
vt 0.668200 0.713614
vt 0.360124 0.711392
vt 0.360540 0.653703
vt 0.102106 0.779860
vt 0.102319 0.750251
vt 0.160009 0.750667
vt 0.159796 0.780276
vt 0.160053 0.744532
vt 0.102364 0.744116
vt 0.102577 0.714507
vt 0.160267 0.714923
vt 0.668661 0.649789
vt 0.360585 0.647567
vt 0.360798 0.617959
vt 0.668874 0.620180
vt 0.360955 0.042525
vt 0.052880 0.040304
vt 0.053296 -0.017386
vt 0.361371 -0.015165
vt 0.668918 0.614045
vt 0.360842 0.611823
vt 0.361056 0.582215
vt 0.669132 0.584436
vt 0.669592 0.520611
vt 0.669176 0.578301
vt 0.361100 0.576080
vt 0.361516 0.518390
vt 0.160528 0.678727
vt 0.160311 0.708788
vt 0.102621 0.708372
vt 0.102838 0.678311
vt 0.676260 0.149344
vt 0.706322 0.149561
vt 0.706108 0.179170
vt 0.676047 0.178953
vt 0.677430 -0.012886
vt 0.707491 -0.012669
vt 0.984337 0.151566
vt 0.984123 0.181174
vt 0.052830 0.047123
vt 0.082891 0.047339
vt 0.082476 0.105029
vt 0.052414 0.104813
vt 0.360906 0.049344
vt 0.360490 0.107034
vt 0.362943 0.320416
vt 0.393004 0.320632
vt 0.392791 0.350241
vt 0.362730 0.350024
vt 0.671019 0.322637
vt 0.670806 0.352246
vt 0.391621 0.512471
vt 0.361560 0.512254
vt 0.103096 0.642567
vt 0.160786 0.642983
vt 0.160572 0.672592
vt 0.102882 0.672176
vt 0.165316 0.568317
vt 0.194924 0.568531
vt 0.194508 0.626221
vt 0.164900 0.626007
vt 0.357155 0.569701
vt 0.356739 0.627391
vt 0.026615 0.856942
vt 0.188845 0.858112
vt 0.188429 0.915802
vt 0.026199 0.914632
vt 0.080115 0.432445
vt 0.080531 0.374755
vt 0.358545 0.376759
vt 0.358130 0.434449
vt 0.160830 0.636848
vt 0.103140 0.636432
vt 0.103357 0.606370
vt 0.161047 0.606786
vt 0.982902 0.350549
vt 0.982688 0.380157
vt 0.952627 0.379941
vt 0.952841 0.350332
vt 0.674612 0.377936
vt 0.674826 0.348327
vt 0.984072 0.188318
vt 0.954010 0.188102
vt 0.982638 0.387106
vt 0.982222 0.444796
vt 0.952161 0.444579
vt 0.952577 0.386890
vt 0.674146 0.442575
vt 0.674562 0.384885
vt 0.982175 0.451420
vt 0.981961 0.481029
vt 0.951900 0.480812
vt 0.952113 0.451203
vt 0.980791 0.643259
vt 0.950730 0.643042
vt 0.673885 0.478808
vt 0.674098 0.449199
vt 0.103401 0.600235
vt 0.103615 0.570626
vt 0.161305 0.571042
vt 0.161091 0.600651
vt 0.356691 0.634014
vt 0.356275 0.691704
vt 0.326666 0.691491
vt 0.327082 0.633801
vt 0.164436 0.690321
vt 0.164852 0.632631
vt 0.188385 0.921937
vt 0.187969 0.979627
vt 0.025738 0.978457
vt 0.026154 0.920767
vt 0.358593 0.370136
vt 0.080578 0.368131
vt 0.080994 0.310441
vt 0.359009 0.312446
vt 0.017998 0.492382
vt 0.018215 0.462321
vt 0.075904 0.462737
vt 0.075688 0.492798
vt 0.980528 0.679817
vt 0.950467 0.679600
vt 0.950680 0.649991
vt 0.980741 0.650208
vt 0.979358 0.842047
vt 0.949297 0.841830
vt 0.672452 0.677595
vt 0.672665 0.647987
vt 0.978892 0.906686
vt 0.948831 0.906469
vt 0.949247 0.848779
vt 0.979308 0.848996
vt 0.670816 0.904465
vt 0.671232 0.846775
vt 0.666257 0.983076
vt 0.636196 0.982859
vt 0.636410 0.953250
vt 0.666471 0.953467
vt 0.358181 0.980854
vt 0.358395 0.951245
vt 0.637579 0.791020
vt 0.667641 0.791237
vt 0.017696 0.534261
vt 0.075386 0.534677
vt 0.075172 0.564286
vt 0.017482 0.563870
vt 0.164388 0.696945
vt 0.193997 0.697158
vt 0.193581 0.754848
vt 0.163972 0.754635
vt 0.356227 0.698328
vt 0.355811 0.756018
vt 0.192606 0.890100
vt 0.354836 0.891270
vt 0.354420 0.948959
vt 0.192190 0.947790
vt 0.358082 0.441073
vt 0.357666 0.498763
vt 0.079651 0.496759
vt 0.080067 0.439069
vt 0.018476 0.426125
vt 0.076165 0.426541
vt 0.075949 0.456602
vt 0.018259 0.456186
vt 0.052153 0.141045
vt 0.052367 0.111436
vt 0.082428 0.111653
vt 0.082214 0.141262
vt 0.360443 0.113658
vt 0.360229 0.143267
vt 0.050984 0.303275
vt 0.081045 0.303492
vt 0.362988 0.314280
vt 0.363404 0.256590
vt 0.393465 0.256807
vt 0.393049 0.314497
vt 0.671480 0.258812
vt 0.671064 0.316502
vt 0.363448 0.250455
vt 0.363661 0.220846
vt 0.393722 0.221063
vt 0.393509 0.250672
vt 0.364831 0.058616
vt 0.394892 0.058833
vt 0.671737 0.223068
vt 0.671524 0.252677
vt 0.017740 0.528126
vt 0.017954 0.498517
vt 0.075644 0.498933
vt 0.075430 0.528542
vt 0.355763 0.762642
vt 0.355347 0.820332
vt 0.325738 0.820118
vt 0.326154 0.762429
vt 0.163508 0.818949
vt 0.163924 0.761259
vt 0.355299 0.826956
vt 0.354883 0.884646
vt 0.192653 0.883476
vt 0.193069 0.825786
vt 0.079603 0.503382
vt 0.357618 0.505387
vt 0.357202 0.563077
vt 0.079187 0.561072
vn -0.085194 0.454953 0.886431
vn -0.085194 0.454953 -0.886431
vn -0.085194 -0.454953 -0.886431
vn -0.085194 -0.454953 0.886431
vn 0.085194 -0.454953 -0.886431
vn 0.085194 0.454953 -0.886431
vn 0.085194 0.454953 0.886431
vn 0.085194 -0.454953 0.886431
vn -0.085194 0.454953 0.886431
vn -0.085194 0.454953 -0.886431
vn -0.085194 -0.454953 -0.886431
vn -0.085194 -0.454953 0.886431
vn 0.085194 -0.454953 -0.886431
vn 0.085194 0.454953 -0.886431
vn 0.085194 0.454953 0.886431
vn 0.085194 -0.454953 0.886431
vn -0.875087 -0.455992 0.162153
vn 0.875087 -0.455992 0.162153
vn 0.875087 0.455992 0.162153
vn -0.875087 0.455992 0.162153
vn -0.886824 0.462107 0.000000
vn 0.402454 0.601963 0.689689
vn 0.000000 0.456613 -0.889666
vn -0.659049 0.343418 -0.669117
vn 0.000000 -0.456613 -0.889666
vn -0.659049 -0.343418 -0.669117
vn 0.402454 -0.601963 0.689689
vn -0.886824 -0.462107 0.000000
vn 0.094328 0.454577 0.885699
vn 0.094328 -0.454577 0.885699
vn 0.094328 -0.454577 -0.885699
vn 0.094328 0.454577 -0.885699
vn 0.875087 -0.455992 0.162153
vn 0.875087 0.455992 0.162153
vn -0.875087 0.455992 0.162153
vn -0.875087 -0.455992 0.162153
vn 0.886824 0.462107 0.000000
vn 0.659049 0.343418 -0.669118
vn 0.000000 0.456613 -0.889666
vn -0.402455 0.601963 0.689689
vn 0.659049 -0.343418 -0.669118
vn 0.000000 -0.456613 -0.889666
vn 0.886824 -0.462107 0.000000
vn -0.402455 -0.601963 0.689689
vn -0.094328 0.454577 0.885699
vn -0.094328 0.454577 -0.885699
vn -0.094328 -0.454577 -0.885699
vn -0.094328 -0.454577 0.885699
vn 0.875088 -0.455991 -0.162153
vn -0.875088 -0.455991 -0.162153
vn -0.875088 0.455991 -0.162153
vn 0.875088 0.455991 -0.162153
vn 0.886824 0.462107 0.000000
vn -0.402455 0.601963 -0.689689
vn 0.000000 0.456613 0.889666
vn 0.659050 0.343418 0.669117
vn 0.000000 -0.456613 0.889666
vn 0.659050 -0.343418 0.669117
vn -0.402455 -0.601963 -0.689689
vn 0.886824 -0.462107 0.000000
vn -0.094328 0.454577 -0.885699
vn -0.094328 -0.454577 -0.885699
vn -0.094328 -0.454577 0.885699
vn -0.094328 0.454577 0.885699
vn -0.875088 -0.455991 -0.162153
vn -0.875088 0.455991 -0.162153
vn 0.875088 0.455991 -0.162153
vn 0.875088 -0.455991 -0.162153
vn -0.886824 0.462107 0.000000
vn -0.659050 0.343418 0.669117
vn 0.000000 0.456613 0.889666
vn 0.402455 0.601963 -0.689689
vn -0.659050 -0.343418 0.669117
vn 0.000000 -0.456613 0.889666
vn -0.886824 -0.462107 0.000000
vn 0.402455 -0.601963 -0.689689
vn 0.094328 0.454577 -0.885699
vn 0.094328 0.454577 0.885699
vn 0.094328 -0.454577 0.885699
vn 0.094328 -0.454577 -0.885699
s 1
g pasted__pCube13 group
usemtl pasted__blinn3SG
f 5/1/1 8/2/2 7/3/3 6/4/4
f 2/5/5 1/6/6 3/7/7 4/8/8
f 4/9/8 6/10/4 7/11/3 2/12/5
f 2/13/5 7/14/3 8/15/2 1/16/6
f 1/17/6 8/18/2 5/19/1 3/20/7
f 4/21/8 3/22/7 5/23/1 6/24/4
s 2
f 13/25/9 16/26/10 15/27/11 14/28/12
f 10/29/13 9/30/14 11/31/15 12/32/16
f 12/33/16 14/34/12 15/35/11 10/36/13
f 10/37/13 15/38/11 16/39/10 9/40/14
f 9/41/14 16/42/10 13/43/9 11/44/15
f 12/45/16 11/46/15 13/47/9 14/48/12
s 3
f 17/49/17 18/50/18 20/51/19 19/52/20
f 25/53/21 26/54/22 22/55/23 21/56/24
f 21/61/24 22/62/23 24/63/25 23/64/26
f 23/67/26 24/68/25 27/69/27 28/70/28
f 29/75/29 30/76/30 31/77/31 32/78/32
f 23/79/26 28/80/28 25/81/21 21/82/24
f 19/57/20 20/58/19 26/54/22 25/53/21
f 18/85/18 27/86/27 26/87/22 20/88/19
f 28/70/28 27/69/27 18/73/18 17/74/17
f 25/81/21 28/80/28 17/83/17 19/84/20
f 26/89/22 27/90/27 30/91/30 29/92/29
f 27/69/27 24/68/25 31/71/31 30/72/30
f 24/63/25 22/62/23 32/65/32 31/66/31
f 22/55/23 26/54/22 29/59/29 32/60/32
s 5
f 33/93/33 35/94/34 36/95/35 34/96/36
f 41/97/37 37/98/38 38/99/39 42/100/40
f 37/105/38 39/106/41 40/107/42 38/108/39
f 39/111/41 44/112/43 43/113/44 40/114/42
f 45/119/45 48/120/46 47/121/47 46/122/48
f 39/123/41 37/124/38 41/125/37 44/126/43
f 35/103/34 41/97/37 42/100/40 36/104/35
f 34/129/36 36/130/35 42/131/40 43/132/44
f 44/112/43 33/115/33 34/116/36 43/113/44
f 41/125/37 35/127/34 33/128/33 44/126/43
f 42/133/40 45/134/45 46/135/48 43/136/44
f 43/113/44 46/117/48 47/118/47 40/114/42
f 40/107/42 47/109/47 48/110/46 38/108/39
f 38/99/39 48/101/46 45/102/45 42/100/40
s 7
f 49/137/49 50/138/50 52/139/51 51/140/52
f 57/141/53 58/142/54 54/143/55 53/144/56
f 53/149/56 54/150/55 56/151/57 55/152/58
f 55/155/58 56/156/57 59/157/59 60/158/60
f 61/163/61 62/164/62 63/165/63 64/166/64
f 55/167/58 60/168/60 57/169/53 53/170/56
f 51/145/52 52/146/51 58/142/54 57/141/53
f 50/173/50 59/174/59 58/175/54 52/176/51
f 60/158/60 59/157/59 50/161/50 49/162/49
f 57/169/53 60/168/60 49/171/49 51/172/52
f 58/177/54 59/178/59 62/179/62 61/180/61
f 59/157/59 56/156/57 63/159/63 62/160/62
f 56/151/57 54/150/55 64/153/64 63/154/63
f 54/143/55 58/142/54 61/147/61 64/148/64
s 9
f 65/181/65 67/182/66 68/183/67 66/184/68
f 73/185/69 69/186/70 70/187/71 74/188/72
f 69/193/70 71/194/73 72/195/74 70/196/71
f 71/199/73 76/200/75 75/201/76 72/202/74
f 77/207/77 80/208/78 79/209/79 78/210/80
f 71/211/73 69/212/70 73/213/69 76/214/75
f 67/191/66 73/185/69 74/188/72 68/192/67
f 66/217/68 68/218/67 74/219/72 75/220/76
f 76/200/75 65/203/65 66/204/68 75/201/76
f 73/213/69 67/215/66 65/216/65 76/214/75
f 74/221/72 77/222/77 78/223/80 75/224/76
f 75/201/76 78/205/80 79/206/79 72/202/74
f 72/195/74 79/197/79 80/198/78 70/196/71
f 70/187/71 80/189/78 77/190/77 74/188/72
g default
v 0.000000 0.100956 -11.392833
v -15.944317 0.100956 -11.392833
v -15.944317 0.100956 0.424079
v 15.944317 0.100956 0.424079
v 15.944317 0.100956 -11.392833
v 0.000000 0.100956 11.394771
v 15.944317 0.100956 11.394771
v -15.944317 0.100956 11.394771
v 0.000000 0.100958 0.297152
v -11.817351 0.100956 0.297152
v 0.000000 0.100956 -7.974850
v -11.817351 0.100956 -7.974850
v 11.817351 0.100956 0.297152
v 11.817351 0.100956 -7.974850
v 0.000000 0.100956 7.976787
v 11.817351 0.100956 7.976787
v -11.817351 0.100956 7.976787
vt 0.373773 2.806025
vt 0.373772 0.500000
vt 3.899166 0.500000
vt 3.899166 2.806025
vt 0.373771 -1.806024
vt 3.899165 -1.806024
vt -2.899163 0.500000
vt -2.899164 -1.806024
vt -2.899163 2.806025
vt 5.355852 0.500000
vt 5.355854 3.611357
vt 0.319679 3.611357
vt 0.319677 -2.611357
vt 5.355851 -2.611357
vt -4.355852 0.500000
vt -4.355853 -2.611357
vt -4.355851 3.611357
vn -0.000000 1.000000 0.000000
vn 0.000000 1.000000 0.000000
vn 0.000000 1.000000 -0.000000
vn -0.000000 1.000000 -0.000000
vn 0.000000 1.000000 0.000000
vn 0.000000 1.000000 -0.000000
vn 0.000000 1.000000 0.000000
vn 0.000000 1.000000 0.000000
vn -0.000000 1.000000 0.000000
vn 0.000000 1.000000 -0.000000
vn 0.000000 1.000000 -0.000000
vn 0.000000 1.000000 -0.000000
vn 0.000000 1.000000 -0.000000
vn 0.000000 1.000000 0.000000
vn 0.000000 1.000000 0.000000
vn 0.000000 1.000000 0.000000
vn 0.000000 1.000000 0.000000
vn 0.000000 1.000000 0.000000
vn 0.000000 1.000000 0.000000
vn 0.000000 1.000000 0.000000
vn 0.000000 1.000000 0.000000
vn 0.000000 1.000000 -0.000000
vn 0.000000 1.000000 -0.000000
vn 0.000000 1.000000 -0.000000
vn 0.000000 1.000000 -0.000000
vn 0.000000 1.000000 0.000000
vn 0.000000 1.000000 0.000000
vn 0.000000 1.000000 0.000000
vn 0.000000 1.000000 0.000000
vn 0.000000 1.000000 0.000000
vn 0.000000 1.000000 0.000000
vn 0.000000 1.000000 0.000000
vn 0.000000 1.000000 0.000000
vn 0.000000 1.000000 0.000000
vn 0.000000 1.000000 0.000000
vn 0.000000 1.000000 0.000000
vn 0.000000 1.000000 0.000000
vn 0.000000 1.000000 0.000000
vn 0.000000 1.000000 0.000000
vn 0.000000 1.000000 0.000000
vn 0.000000 1.000000 0.000000
s 1
g group pasted__polySurface1 pasted__Ground
usemtl pasted__blinn6SG
f 90/225/81 89/226/82 91/227/83 92/228/84
f 91/227/83 89/226/82 93/229/85 94/230/86
f 89/226/82 95/231/87 96/232/88 93/229/85
f 97/233/89 95/231/87 89/226/82 90/225/81
s off
f 81/234/90 82/235/91 92/228/92 91/227/93
f 82/235/94 83/236/95 90/225/96 92/228/97
f 84/237/98 85/238/99 94/230/100 93/229/101
f 85/238/102 81/234/103 91/227/104 94/230/105
f 86/239/106 87/240/107 96/232/108 95/231/109
f 87/240/110 84/237/111 93/229/112 96/232/113
f 88/241/114 86/239/115 95/231/116 97/233/117
f 83/236/118 88/241/119 97/233/120 90/225/121
g default
v 15.944318 0.100958 -11.392833
v -15.944318 0.100958 -11.392833
v 15.944318 0.100958 0.424079
v -15.944318 0.100958 0.424079
v 0.000000 0.100958 -11.392833
v 15.944318 0.100958 11.394771
v 0.000000 0.100958 11.394771
v -15.944318 0.100958 11.394771
v -15.944318 1.001728 -11.392833
v 0.000000 1.001728 -11.392833
v 15.944318 1.001728 0.424079
v 15.944318 1.001728 -11.392833
v -15.944318 1.001728 0.424079
v 15.944318 1.001728 11.394771
v 0.000000 1.001728 11.394771
v -15.944318 1.001728 11.394771
v -16.482851 1.001728 -11.777669
v 0.000000 1.001728 -11.777669
v 16.482851 1.001728 0.438370
v 16.482851 1.001728 -11.777669
v -16.482851 1.001728 0.438370
v 16.482851 1.001728 11.779606
v 0.000000 1.001728 11.779606
v -16.482851 1.001728 11.779606
v -16.482851 0.100958 -11.777669
v 0.000000 0.100958 -11.777669
v 16.482851 0.100958 0.438370
v 16.482851 0.100958 -11.777669
v -16.482851 0.100958 0.438370
v 16.482851 0.100958 11.779606
v 0.000000 0.100958 11.779606
v -16.482851 0.100958 11.779606
vt 0.675361 0.805980
vt 0.469822 0.805980
vt 0.469822 0.733634
vt 0.675360 0.733634
vt 0.264285 0.805980
vt 0.264285 0.733634
vt 0.317490 0.805703
vt 0.137474 0.805703
vt 0.137474 0.734382
vt 0.317490 0.734382
vt -0.029650 0.805703
vt -0.029650 0.734382
vt 1.072378 0.734171
vt 1.229649 0.734171
vt 1.229649 0.805409
vt 1.072378 0.805409
vt 0.926371 0.734171
vt 0.926371 0.805409
vt 0.926051 0.806080
vt 0.774426 0.806080
vt 0.774426 0.734438
vt 0.926051 0.734438
vt 0.622801 0.806080
vt 0.622801 0.734438
vt -0.634682 -0.359365
vt -0.483056 -0.359365
vt -0.483056 -0.339805
vt -0.639803 -0.339805
vt -0.558562 -0.494788
vt -0.558562 -0.477596
vt 0.237117 0.342146
vt 0.237762 0.325006
vt -0.427733 -0.494788
vt -0.427733 -0.477596
vt 0.342311 0.342146
vt 0.342311 0.325006
vt -0.263272 -0.649654
vt -0.258150 -0.665115
vt -0.414898 -0.649654
vt -0.414898 -0.665115
vt -0.150072 -0.091545
vt -0.150072 -0.248293
vt 0.133782 -0.248293
vt 0.133782 -0.091545
vt -0.150072 -0.405041
vt 0.133782 -0.405041
vt 0.033788 -0.722555
vt 0.033788 -0.559973
vt -0.250067 -0.559973
vt -0.250067 -0.722555
vt 0.033788 -0.409034
vt -0.250067 -0.409034
vt -0.578378 -0.571616
vt -0.578378 -0.409034
vt -0.862234 -0.409034
vt -0.862234 -0.571616
vt -0.578378 -0.722555
vt -0.862234 -0.722555
vt 0.869012 0.693909
vt 0.474551 0.693909
vt 0.474551 0.624522
vt 0.869012 0.624522
vt 0.080090 0.693909
vt 0.080090 0.624522
vt -0.571645 -0.665115
vt -0.566524 -0.649654
vt 0.136342 0.325006
vt 0.136342 0.342146
vt -0.302480 -0.477596
vt -0.302480 -0.494788
vt -0.326309 -0.340602
vt -0.331430 -0.359365
vn 0.595433 0.000000 0.803405
vn 0.000000 0.000000 1.000000
vn 0.000000 0.398466 0.917183
vn 0.407265 0.729500 0.549514
vn -0.595433 0.000000 0.803405
vn -1.000000 0.000000 0.000000
vn -0.854277 0.519818 0.000000
vn -0.407265 0.729500 0.549514
vn 1.000000 0.000000 0.000000
vn 0.854277 0.519818 0.000000
vn -0.566844 0.000000 -0.823825
vn -0.390189 0.725375 -0.567084
vn 0.000000 0.000000 -1.000000
vn 0.000000 0.398465 -0.917184
vn 0.566844 0.000000 -0.823825
vn 0.390189 0.725375 -0.567084
vn 0.000000 0.387429 -0.921899
vn -0.563067 0.325207 -0.759734
vn 0.862182 0.506598 0.000000
vn 0.563067 0.325207 -0.759734
vn -0.862182 0.506598 0.000000
vn 0.536707 0.321720 0.780027
vn 0.000000 0.387428 0.921900
vn -0.536707 0.321720 0.780027
vn 0.000000 0.000000 -1.000000
vn -0.595433 0.000000 -0.803405
vn 1.000000 0.000000 0.000000
vn 0.595433 0.000000 -0.803405
vn -1.000000 0.000000 0.000000
vn 0.566844 0.000000 0.823825
vn 0.000000 0.000000 1.000000
vn -0.566844 0.000000 0.823825
s 1
g group pasted__Ground pasted__polySurface2
usemtl pasted__blinn3SG
f 99/242/122 102/243/123 107/244/124 106/245/125
f 98/248/126 100/249/127 108/250/128 109/251/129
f 101/254/130 99/255/122 106/256/125 110/257/131
f 102/243/123 98/246/126 109/247/129 107/244/124
f 100/249/127 103/252/132 111/253/133 108/250/128
f 103/260/132 104/261/134 112/262/135 111/263/133
f 105/258/136 101/254/130 110/257/131 113/259/137
f 104/261/134 105/264/136 113/265/137 112/262/135
f 106/266/125 107/267/124 115/268/138 114/269/139
f 109/270/129 108/274/128 116/275/140 117/271/141
f 110/272/131 106/309/125 114/308/139 118/273/142
f 107/267/124 109/313/129 117/312/141 115/268/138
f 108/274/128 111/311/133 119/310/143 116/275/140
f 111/278/133 112/280/135 120/281/144 119/279/143
f 113/276/137 110/272/131 118/273/142 121/277/145
f 112/280/135 113/307/137 121/306/145 120/281/144
f 114/282/139 115/283/138 123/284/146 122/285/147
f 117/288/141 116/289/140 124/290/148 125/291/149
f 118/294/142 114/295/139 122/296/147 126/297/150
f 115/283/138 117/286/141 125/287/149 123/284/146
f 116/289/140 119/292/143 127/293/151 124/290/148
f 119/300/143 120/301/144 128/302/152 127/303/151
f 121/298/145 118/294/142 126/297/150 129/299/153
f 120/301/144 121/304/145 129/305/153 128/302/152
