# This file uses centimeters as units for non-parametric coordinates.

mtllib sofa.mtl
g default
v -1.277009 0.100958 -3.218090
v 2.193263 0.100958 -3.218090
v -1.277009 0.891751 -3.218090
v 2.193263 0.891751 -3.218090
v -1.277009 0.891751 -3.969919
v 2.193263 0.891751 -3.969919
v -1.277009 0.100958 -3.969919
v 2.193263 0.100958 -3.969919
v -1.277009 1.437801 -3.301579
v 2.193263 1.437801 -3.301579
v 2.193263 1.376239 -3.969919
v -1.277009 1.376239 -3.969919
v -1.277009 0.100958 -2.868678
v 2.193263 0.100958 -2.868678
v 2.193263 0.891751 -2.753189
v -1.277009 0.891751 -2.753189
v -1.277009 0.100958 -2.481979
v 2.193263 0.100958 -2.481979
v 2.193263 0.690276 -2.538021
v -1.277009 0.690276 -2.538021
v 2.193263 1.614332 -3.643285
v -1.277009 1.614332 -3.643285
v -1.277009 0.891751 -3.643285
v -1.277009 0.100958 -3.643285
v 2.193263 0.100958 -3.643285
v 2.193263 0.891751 -3.643285
vt 0.375000 0.000000
vt 0.625000 0.000000
vt 0.375000 0.250000
vt 0.625000 0.250000
vt 0.375000 0.500000
vt 0.625000 0.500000
vt 0.375000 0.750000
vt 0.625000 0.750000
vt 0.375000 1.000000
vt 0.625000 1.000000
vt 0.875000 0.000000
vt 0.875000 0.250000
vt 0.125000 0.000000
vt 0.125000 0.250000
vt 0.375000 0.250000
vt 0.625000 0.250000
vt 0.625000 0.500000
vt 0.375000 0.500000
vt 0.375000 0.000000
vt 0.625000 0.000000
vt 0.625000 0.250000
vt 0.375000 0.250000
vt 0.375000 0.000000
vt 0.625000 0.000000
vt 0.625000 0.250000
vt 0.375000 0.250000
vt 0.625000 0.375000
vt 0.375000 0.375000
vt 0.250000 0.250000
vt 0.375000 0.375000
vt 0.250000 0.000000
vt 0.375000 0.875000
vt 0.625000 0.875000
vt 0.750000 0.000000
vt 0.625000 0.375000
vt 0.750000 0.250000
vn -0.084110 -0.487589 0.869012
vn 0.084110 -0.487589 0.869012
vn 0.111088 0.322403 0.940062
vn -0.111088 0.322403 0.940062
vn -0.114520 0.503814 0.856187
vn 0.114520 0.503814 0.856187
vn 0.121419 0.988417 -0.091044
vn -0.121419 0.988417 -0.091044
vn -0.102369 0.000000 -0.994747
vn 0.102369 0.000000 -0.994747
vn 0.086667 -0.380326 -0.920783
vn -0.086667 -0.380326 -0.920783
vn -0.222181 -0.975005 0.000000
vn 0.222181 -0.975005 0.000000
vn 0.237837 -0.971305 0.000000
vn -0.237837 -0.971305 0.000000
vn 1.000000 0.000000 0.000000
vn 0.309663 0.673786 0.670910
vn -0.309663 0.673786 0.670910
vn -1.000000 0.000000 0.000000
vn -0.099862 0.409850 -0.906670
vn 0.099862 0.409850 -0.906670
vn 0.207887 -0.978153 0.000000
vn -0.207887 -0.978153 0.000000
vn 0.168760 0.945056 0.279979
vn -0.168760 0.945056 0.279979
s 1
g pasted__pCube55 group
usemtl initialShadingGroup
f 17/23/1 18/24/2 19/25/3 20/26/4
f 9/15/5 10/16/6 21/27/7 22/28/8
f 5/5/9 6/6/10 8/8/11 7/7/12
f 24/32/13 25/33/14 2/10/15 1/9/16
f 2/2/15 25/34/14 26/36/17 4/4/18
f 24/31/13 1/1/16 3/3/19 23/29/20
f 3/3/19 4/4/18 10/16/6 9/15/5
f 4/4/18 26/35/17 21/27/7 10/16/6
f 6/6/10 5/5/9 12/18/21 11/17/22
f 23/30/20 3/3/19 9/15/5 22/28/8
f 1/1/16 2/2/15 14/20/23 13/19/24
f 2/2/15 4/4/18 15/21/25 14/20/23
f 4/4/18 3/3/19 16/22/26 15/21/25
f 3/3/19 1/1/16 13/19/24 16/22/26
f 13/19/24 14/20/23 18/24/2 17/23/1
f 14/20/23 15/21/25 19/25/3 18/24/2
f 15/21/25 16/22/26 20/26/4 19/25/3
f 16/22/26 13/19/24 17/23/1 20/26/4
f 22/28/8 21/27/7 11/17/22 12/18/21
f 5/5/9 23/30/20 22/28/8 12/18/21
f 7/13/12 24/31/13 23/29/20 5/14/9
f 7/7/12 8/8/11 25/33/14 24/32/13
f 26/36/17 25/34/14 8/11/11 6/12/10
f 21/27/7 26/35/17 6/6/10 11/17/22
